<svg xmlns="http://www.w3.org/2000/svg" width="48px" height="48px" viewBox="0 0 24 24" id="tata"><path fill-rule="evenodd" d="M8.133 19.572C3.411 18.495 0 15.505 0 12c0-.439.054-.868.156-1.287 2.301-.625 8.339-1.554 9.444-.822.725.427-.688 6.175-1.467 9.681zm15.71-8.861c.103.42.157.85.157 1.289 0 3.512-3.425 6.507-8.162 7.579-.78-3.507-2.192-9.261-1.467-9.688 1.104-.731 7.167.195 9.472.82z" clip-rule="evenodd"></path><path fill-rule="evenodd" d="M12 4c5.177 0 9.605 2.205 11.282 5.277-1.929-.3-10.866-2.446-10.767-.675v11.389a14.615 14.615 0 0 1-1.06 0V8.602c.099-1.769-8.794.369-10.736.674C2.395 6.204 6.824 4 12 4z" clip-rule="evenodd"></path></svg>